<?xml version="1.0" standalone="no"?>
<!DOCTYPE svg PUBLIC "-//W3C//DTD SVG 20010904//EN"
 "http://www.w3.org/TR/2001/REC-SVG-20010904/DTD/svg10.dtd">
<svg version="1.0" xmlns="http://www.w3.org/2000/svg"
 width="347.000000pt" height="347.000000pt" viewBox="0 0 347.000000 347.000000"
 preserveAspectRatio="xMidYMid meet">
<metadata>
Created by potrace 1.14, written by Peter Selinger 2001-2017
</metadata>
<g transform="translate(0.000000,347.000000) scale(0.100000,-0.100000)"
fill="#000000" stroke="none">
<path d="M101 2779 c-18 -4 -45 -19 -60 -33 l-26 -26 -3 -968 c-1 -532 0 -977
3 -989 8 -34 51 -71 91 -79 59 -11 162 1 186 22 48 45 48 40 48 579 0 550 -1
543 56 580 28 18 82 23 107 9 14 -8 117 -101 236 -212 106 -99 199 -142 321
-147 85 -3 177 20 244 62 37 23 165 135 271 237 22 21 50 45 62 53 30 20 85
19 117 -2 57 -37 56 -31 56 -575 0 -534 1 -541 50 -585 17 -15 40 -21 100 -23
92 -5 136 12 164 60 18 30 19 74 19 994 0 1059 4 989 -59 1031 -34 22 -227 25
-267 4 -14 -7 -132 -160 -263 -340 -130 -179 -251 -341 -268 -359 -116 -124
-302 -127 -417 -5 -28 30 -331 437 -399 536 -46 69 -113 152 -131 165 -24 16
-179 24 -238 11z"/>
<path d="M2324 2780 c-69 -19 -80 -53 -75 -226 1 -14 14 -39 30 -55 l29 -29
509 0 c279 0 517 3 528 6 42 11 60 53 61 144 2 92 -10 131 -49 152 -16 9 -145
12 -518 13 -273 0 -505 -2 -515 -5z"/>
<path d="M2303 1920 c-42 -17 -55 -52 -55 -149 1 -95 9 -123 45 -143 33 -18
729 -19 767 0 38 19 49 49 51 146 2 95 -12 129 -57 146 -32 12 -721 12 -751 0z"/>
<path d="M2300 983 c-42 -17 -50 -41 -50 -147 0 -86 2 -98 24 -123 l24 -28
547 -2 546 -2 32 29 32 28 0 101 c0 96 -1 102 -28 128 l-27 28 -536 0 c-390 0
-544 -3 -564 -12z"/>
</g>
</svg>
