<svg xmlns="http://www.w3.org/2000/svg" width="32" height="32" viewBox="0 0 24 24"><path fill="currentColor" d="M13.74 1.053a.5.5 0 0 0-.157.025a.5.5 0 0 0-.25.188L7.595 9.562a.5.5 0 0 0-.084.223a.5.5 0 0 0 .032.236a.5.5 0 0 0 .14.193a.5.5 0 0 0 .215.105l3.707.786l-.23 4.58a.5.5 0 0 0 .085.3a.5.5 0 0 0 .25.189a.5.5 0 0 0 .313 0a.5.5 0 0 0 .25-.187l5.738-8.296a.5.5 0 0 0 .084-.223a.5.5 0 0 0-.032-.236a.5.5 0 0 0-.14-.194a.5.5 0 0 0-.215-.104l-3.707-.787l.23-4.58a.5.5 0 0 0-.085-.3a.5.5 0 0 0-.25-.188a.5.5 0 0 0-.156-.026M1.157 9.788c-.307.001-.6.124-.817.34a1.16 1.16 0 0 0-.34.817a1.16 1.16 0 0 0 .334.82l10.842 10.842a1.2 1.2 0 0 0 .377.252a1.2 1.2 0 0 0 .445.088h.004a1.2 1.2 0 0 0 .445-.088a1.2 1.2 0 0 0 .377-.252l10.842-10.843a1.16 1.16 0 0 0 .334-.82a1.16 1.16 0 0 0-.34-.816a1.16 1.16 0 0 0-.817-.34a1.16 1.16 0 0 0-.82.334l-5.4 5.4l-.026.02L12 20.14l-4.598-4.597l-.024-.02l-5.401-5.401a1.16 1.16 0 0 0-.82-.334"/></svg>